<?xml version="1.0" standalone="no"?>
<!DOCTYPE svg PUBLIC "-//W3C//DTD SVG 20010904//EN"
 "http://www.w3.org/TR/2001/REC-SVG-20010904/DTD/svg10.dtd">
<svg version="1.0" xmlns="http://www.w3.org/2000/svg"
 width="900.000000pt" height="500.000000pt" viewBox="0 0 900.000000 500.000000"
 preserveAspectRatio="xMidYMid meet">

<g transform="translate(0.000000,500.000000) scale(0.100000,-0.100000)"
fill="#000000" stroke="none">
<path d="M3813 4982 c-264 -94 -474 -529 -474 -982 0 -203 57 -310 166 -310
50 0 81 18 147 87 88 93 186 258 258 436 13 31 28 57 34 57 12 0 274 -258 288
-284 8 -14 2 -35 -26 -95 -96 -205 -111 -457 -44 -729 l21 -83 -49 -50 c-58
-59 -164 -134 -249 -176 -77 -39 -156 -64 -336 -108 -162 -39 -260 -76 -362
-136 -84 -50 -194 -152 -253 -235 -50 -70 -117 -206 -136 -277 -11 -41 -15
-47 -33 -42 -25 8 -81 22 -116 29 -21 5 -34 21 -62 78 -47 94 -68 188 -68 300
0 167 50 259 194 356 50 33 73 56 75 72 4 22 2 23 -59 17 -144 -13 -313 -135
-380 -274 -72 -150 -42 -356 79 -532 l30 -45 -42 -27 c-157 -99 -232 -288
-195 -495 30 -173 111 -337 252 -512 l67 -82 -38 0 c-56 0 -133 -26 -181 -60
-103 -75 -135 -273 -54 -331 14 -10 22 -30 26 -71 7 -74 41 -134 92 -163 55
-31 87 -37 139 -25 l45 10 48 -48 c54 -53 101 -72 184 -72 90 0 115 10 247
103 21 15 52 29 67 30 23 2 29 -3 41 -35 31 -90 112 -154 205 -165 40 -4 62
-13 84 -33 57 -53 92 -65 190 -65 72 0 100 5 138 22 43 20 51 21 70 8 12 -8
51 -22 87 -31 150 -38 293 18 367 144 30 51 43 170 25 235 -9 33 -8 37 8 37
41 0 67 -18 74 -52 11 -54 58 -130 95 -152 31 -18 39 -18 125 -7 l92 13 75
-35 c41 -19 91 -38 111 -41 51 -9 111 9 154 46 32 28 41 31 109 32 65 1 78 4
118 33 25 17 69 36 99 42 105 22 167 103 168 217 0 120 -53 224 -134 264 -34
16 -60 20 -113 19 -41 -2 -77 2 -92 11 -18 9 -49 11 -117 6 -78 -5 -93 -4
-105 10 -11 14 -14 62 -13 223 1 197 9 281 45 458 l10 52 57 -34 c130 -75 298
-127 475 -147 92 -10 107 -14 102 -27 -4 -9 -9 -70 -12 -136 -5 -107 -3 -126
17 -177 24 -66 85 -134 145 -163 28 -14 61 -20 110 -20 61 0 78 5 133 34 151
82 220 233 208 456 -3 61 -8 121 -11 135 -6 23 2 31 79 83 161 110 311 295
380 468 99 253 83 577 -40 828 -59 119 -156 222 -254 269 -36 17 -80 42 -99
56 -90 67 -336 97 -505 61 -81 -17 -91 -13 -141 52 -46 60 -71 146 -90 302 -9
69 -22 151 -30 182 -28 112 -89 223 -167 305 l-40 42 78 91 c43 50 81 91 84
90 3 0 47 -65 99 -144 51 -79 116 -169 144 -200 99 -111 209 -147 267 -86 75
81 80 296 11 493 -51 149 -175 331 -284 420 -195 159 -357 123 -496 -107 -45
-74 -95 -207 -123 -328 l-23 -98 -35 6 c-19 3 -93 8 -165 11 -146 6 -230 -6
-337 -51 -35 -15 -70 -29 -78 -31 -12 -4 -29 29 -73 149 -140 380 -243 549
-372 613 -73 35 -161 41 -232 16z m1267 -778 c145 -43 263 -140 324 -266 48
-100 72 -195 96 -381 23 -181 43 -240 99 -307 l40 -47 -35 -16 c-55 -26 -121
-94 -140 -143 -70 -184 211 -461 474 -466 37 0 81 2 98 6 l32 7 7 -103 c8
-121 -8 -298 -36 -396 -24 -83 -23 -93 1 -64 55 66 90 242 90 451 l0 147 29
17 c89 52 213 243 227 348 4 27 10 49 15 49 4 0 27 -15 51 -33 91 -70 171
-207 210 -362 18 -74 22 -116 22 -240 -1 -133 -4 -160 -27 -236 -53 -173 -111
-273 -231 -394 -69 -69 -192 -162 -203 -152 -2 3 -17 32 -33 64 l-28 60 52 31
c70 41 196 159 196 182 0 37 -20 29 -92 -35 -52 -46 -105 -81 -183 -119 -158
-78 -215 -91 -415 -91 -193 0 -276 17 -425 90 -172 83 -274 183 -325 319 -8
23 -13 27 -23 17 -29 -29 72 -214 160 -290 61 -54 141 -107 206 -135 62 -28
199 -63 279 -72 54 -6 58 -9 69 -41 6 -19 12 -55 12 -81 l2 -47 -70 3 c-471
23 -932 398 -1115 910 -32 89 -52 112 -64 74 -9 -29 39 -186 90 -292 86 -180
257 -405 383 -505 41 -33 50 -44 45 -64 -23 -104 -46 -327 -51 -501 -7 -238 4
-300 60 -353 29 -27 36 -29 82 -23 157 21 163 20 207 -10 106 -74 116 -237 20
-344 -29 -33 -46 -43 -80 -47 l-43 -6 8 39 c12 57 7 144 -10 185 -24 54 -75
98 -134 115 -67 20 -137 16 -141 -8 -3 -18 4 -21 80 -33 72 -11 128 -82 128
-163 0 -95 -69 -202 -131 -202 -16 0 -58 14 -92 31 -94 48 -113 51 -193 33
-65 -14 -75 -14 -102 0 -66 34 -86 140 -54 293 27 126 42 275 42 418 0 120 -4
145 -25 145 -26 0 -36 -31 -46 -146 -8 -95 -15 -126 -33 -154 -35 -53 -186
-163 -202 -147 -19 19 -30 346 -15 440 6 34 4 52 -5 65 -12 15 -14 16 -29 1
-28 -28 -39 -135 -39 -379 l0 -235 44 -125 c74 -212 60 -308 -52 -364 -41 -20
-67 -26 -120 -26 -121 0 -163 34 -188 150 -23 107 7 215 65 242 27 12 34 48
10 48 -45 0 -124 -70 -150 -133 -30 -73 -30 -180 0 -259 8 -19 -56 -41 -121
-41 -123 0 -194 86 -194 236 0 73 18 117 64 152 44 33 47 55 8 55 -46 0 -106
-51 -138 -117 -25 -50 -29 -69 -28 -140 l0 -82 -37 19 c-59 31 -81 76 -80 167
1 102 31 168 93 204 38 21 56 24 148 25 58 1 113 2 123 3 62 4 63 250 1 726
-27 206 -43 260 -69 234 -12 -12 -11 -37 2 -154 10 -89 16 -243 17 -424 l1
-284 -97 1 -97 0 -88 57 c-49 32 -124 94 -168 139 -124 127 -185 225 -276 444
-10 26 -32 25 -37 -2 -10 -48 78 -263 155 -384 44 -70 190 -221 259 -268 30
-21 54 -39 54 -42 0 -2 -10 -12 -23 -22 -34 -27 -86 -130 -94 -185 -4 -30 -12
-49 -22 -52 -53 -16 -102 -43 -149 -81 -93 -76 -159 -90 -238 -51 -34 16 -49
32 -70 75 -23 46 -26 63 -20 108 3 29 12 69 21 88 19 46 69 88 104 88 34 0 44
9 30 27 -15 17 -61 17 -102 -1 -69 -28 -127 -132 -127 -226 0 -42 -26 -60 -85
-60 -71 0 -112 103 -80 200 33 99 140 182 215 166 23 -4 32 -2 37 10 9 23 -15
34 -73 34 -84 0 -175 -57 -235 -149 l-15 -24 -18 38 c-31 65 -7 126 67 170 92
53 257 54 338 1 61 -41 160 -87 177 -84 11 2 -18 27 -78 68 -309 211 -537 617
-499 888 25 176 134 288 290 300 127 9 251 -40 356 -140 34 -33 67 -57 72 -53
25 15 8 50 -53 111 l-64 64 72 -6 c143 -12 345 42 476 128 83 54 200 165 240
227 16 27 42 77 57 112 24 56 27 78 28 173 l1 108 54 17 c101 32 210 95 320
186 30 25 57 45 60 45 3 0 13 -14 22 -30 17 -31 58 -42 58 -17 0 8 -11 47 -25
88 -45 130 -66 254 -72 419 -4 131 -2 170 15 253 60 289 252 476 547 533 86
17 239 11 315 -12z m1115 -1018 c28 -10 60 -27 73 -39 l22 -21 -32 -33 c-41
-43 -132 -88 -205 -103 -83 -18 -278 -8 -393 20 -52 12 -99 26 -104 31 -13 12
36 63 89 93 35 20 127 54 190 70 11 2 85 4 165 2 108 -2 158 -7 195 -20z
m-1779 -2552 c-14 -35 -26 -73 -26 -84 0 -18 -7 -20 -56 -20 -53 0 -55 1 -70
35 -7 19 -14 38 -14 42 0 4 33 25 74 46 40 21 82 47 92 58 30 34 30 -1 0 -77z
m1018 22 c37 -75 22 -212 -26 -237 -17 -9 -18 -7 -11 18 4 15 8 62 8 103 0 59
-5 86 -25 125 -13 28 -26 54 -28 59 -3 5 10 1 29 -10 19 -11 43 -37 53 -58z"/>
<path d="M4720 3658 c-97 -49 -192 -174 -240 -314 -36 -104 -24 -269 28 -369
27 -53 98 -119 148 -136 216 -74 424 138 424 433 0 162 -52 306 -134 372 -33
27 -47 31 -109 34 -59 2 -80 -1 -117 -20z"/>
<path d="M5163 3488 c-67 -71 -45 -255 32 -274 78 -19 125 142 73 246 -19 37
-29 46 -53 48 -22 2 -37 -4 -52 -20z"/>
</g>
</svg>
