<?xml version="1.0" standalone="no"?>
<!DOCTYPE svg PUBLIC "-//W3C//DTD SVG 20010904//EN"
 "http://www.w3.org/TR/2001/REC-SVG-20010904/DTD/svg10.dtd">
<svg version="1.0" xmlns="http://www.w3.org/2000/svg"
 width="860.000000pt" height="860.000000pt" viewBox="0 0 860.000000 860.000000"
 preserveAspectRatio="xMidYMid meet">

<g transform="translate(0.000000,860.000000) scale(0.100000,-0.100000)"
fill="#000000" stroke="none">
<path d="M5807 7765 c-175 -44 -347 -183 -425 -345 -55 -112 -72 -184 -72
-300 0 -116 20 -202 66 -297 62 -125 64 -121 64 96 l0 191 450 0 450 0 0 -205
c0 -192 1 -206 20 -225 12 -12 33 -20 55 -20 63 0 75 24 75 145 l0 105 36 0
c19 0 44 -5 54 -10 17 -9 20 -5 30 27 67 241 5 486 -170 662 -76 76 -148 121
-252 159 -62 22 -93 26 -198 29 -84 1 -144 -2 -183 -12z"/>
<path d="M2450 7634 c-132 -26 -275 -99 -361 -185 -110 -109 -159 -239 -159
-424 0 -124 18 -209 72 -347 41 -104 44 -108 73 -108 l30 0 -6 68 c-8 91 6
228 32 296 47 126 137 209 274 254 146 48 218 41 404 -42 53 -24 120 -49 150
-56 66 -15 175 -9 222 14 121 57 184 222 149 389 -12 59 -19 67 -39 43 -6 -8
-35 -24 -63 -36 -68 -29 -127 -23 -267 31 -219 85 -279 101 -386 104 -55 2
-111 1 -125 -1z"/>
<path d="M6040 6933 c-36 -13 -50 -36 -50 -82 0 -62 9 -75 43 -62 18 7 36 7
54 0 34 -13 43 0 43 62 0 31 -6 51 -17 61 -22 19 -53 28 -73 21z"/>
<path d="M5562 6904 c-19 -13 -22 -24 -20 -57 l3 -41 50 0 50 0 3 36 c2 27 -3
43 -17 57 -25 25 -39 26 -69 5z"/>
<path d="M2314 6872 c-27 -21 -44 -54 -44 -84 0 -21 1 -21 19 8 37 61 119 69
173 17 l28 -27 -11 32 c-6 18 -22 41 -36 52 -32 25 -100 26 -129 2z"/>
<path d="M2784 6880 c-27 -11 -54 -48 -54 -75 1 -18 1 -19 11 -2 16 27 67 49
99 42 16 -3 40 -18 54 -32 28 -28 33 -20 14 22 -20 45 -76 65 -124 45z"/>
<path d="M6197 6440 c-11 -54 -44 -100 -82 -116 -52 -21 -143 -18 -183 6 -20
13 -32 16 -30 8 8 -23 89 -58 137 -58 102 1 176 71 169 158 l-3 37 -8 -35z"/>
<path d="M6209 5866 l-113 -91 -100 -268 c-54 -147 -101 -265 -103 -263 -2 2
3 109 12 239 8 129 15 239 15 244 0 6 11 15 24 21 25 11 46 62 46 108 0 31
-30 63 -67 70 -66 13 -104 -71 -72 -160 10 -27 4 -64 -35 -241 -26 -116 -49
-214 -51 -220 -3 -5 -3 82 -1 195 5 214 -10 420 -30 427 -22 7 -71 -46 -97
-105 -31 -69 -58 -193 -82 -377 -18 -141 -23 -152 -118 -295 -215 -320 -525
-447 -1008 -413 -85 6 -156 8 -159 3 -3 -4 -55 19 -115 53 -91 51 -120 62
-169 65 -70 5 -148 -10 -196 -39 l-34 -21 37 -13 c21 -7 47 -10 58 -8 12 3 24
1 28 -4 3 -6 22 -18 41 -28 19 -10 70 -45 113 -78 61 -48 77 -66 77 -87 0 -52
-41 -65 -92 -28 -28 19 -29 19 -20 2 18 -34 66 -71 107 -84 22 -7 45 -19 52
-27 14 -19 166 -57 318 -80 146 -22 388 -22 515 1 164 29 323 91 448 174 29
19 54 33 56 31 4 -4 -37 -849 -48 -1016 -6 -77 -5 -83 13 -83 18 0 19 -13 25
-212 6 -240 26 -1406 27 -1657 1 -192 16 -171 -142 -195 -265 -41 -326 -63
-374 -134 -32 -47 -32 -82 1 -113 26 -24 27 -24 227 -22 111 1 239 5 285 10
l82 9 0 -26 c0 -15 10 -35 21 -46 54 -48 742 0 859 61 54 28 52 15 55 467 1
233 8 681 15 996 11 479 11 577 0 598 -12 21 -12 32 0 72 7 26 15 67 18 92 l4
45 216 4 c138 2 219 7 224 14 25 41 21 689 -7 942 -46 426 -119 794 -214 1083
-51 156 -133 325 -183 380 -47 50 -137 94 -229 111 l-46 8 -114 -91z m-231
-3171 c7 -82 32 -390 57 -683 25 -293 45 -546 45 -561 0 -25 -8 -32 -88 -69
-48 -23 -94 -42 -101 -42 -11 0 -13 17 -8 88 3 48 21 390 39 759 18 370 35
669 39 665 3 -4 11 -74 17 -157z"/>
<path d="M2130 5863 c-83 -13 -157 -49 -211 -103 -95 -94 -113 -186 -99 -505
5 -115 14 -329 20 -475 5 -146 12 -321 15 -390 14 -300 35 -849 35 -892 0 -44
2 -48 24 -48 23 0 25 -4 30 -72 7 -98 28 -1260 31 -1734 1 -209 6 -390 9 -402
4 -12 16 -27 26 -32 57 -31 353 -71 654 -90 236 -15 314 -3 342 52 11 21 20
28 32 23 9 -4 119 -9 243 -12 l225 -6 23 24 c28 30 25 92 -8 137 -36 51 -90
69 -335 109 l-229 38 2 240 c1 132 5 243 9 246 4 3 153 36 332 73 929 193
1229 258 1268 272 24 9 48 26 53 38 8 16 -6 99 -56 336 -36 173 -86 412 -111
530 -24 118 -50 227 -56 243 -12 31 -51 62 -90 72 -16 4 -132 -16 -298 -50
-286 -60 -289 -60 -290 -12 0 46 -85 137 -127 137 -18 0 -17 -2 16 -59 16 -27
33 -70 36 -95 7 -42 5 -46 -16 -51 -13 -3 -95 -20 -182 -39 -149 -31 -159 -32
-168 -15 -11 21 -12 189 -1 205 4 6 66 51 137 99 72 49 134 91 138 95 5 4 -22
50 -60 101 -98 132 -253 367 -253 383 0 2 33 12 73 21 75 19 134 40 228 81
l56 26 -19 40 c-17 34 -40 114 -71 249 l-7 26 -82 -25 c-103 -30 -355 -44
-375 -21 -6 8 -28 52 -49 99 l-37 85 -13 230 c-19 351 -65 629 -119 721 -22
38 -81 92 -89 83 -14 -15 -27 -282 -22 -444 3 -104 4 -185 1 -180 -3 6 -27
107 -53 226 -41 185 -46 219 -35 235 23 31 16 101 -12 129 -51 52 -115 19
-115 -61 0 -38 5 -51 32 -77 l31 -32 14 -210 c7 -115 12 -221 11 -235 -2 -16
-38 68 -96 224 -51 137 -96 255 -100 262 -10 17 -220 184 -229 183 -4 -1 -19
-4 -33 -6z m946 -2185 c32 -40 78 -94 102 -120 l44 -47 -17 -46 c-13 -33 -16
-60 -12 -98 l7 -53 -88 -18 c-48 -9 -95 -20 -104 -22 -16 -5 -18 4 -18 90 0
83 2 96 17 96 14 0 16 14 10 145 -4 80 -5 145 -3 145 2 0 30 -33 62 -72z m499
-450 c27 -24 54 -111 55 -175 0 -48 -45 -95 -92 -95 -41 0 -73 15 -87 40 -20
38 -40 164 -30 191 23 61 104 81 154 39z m-1015 -998 c16 -338 33 -657 36
-709 l7 -94 -38 7 c-20 4 -66 16 -101 27 l-64 20 5 37 c3 20 30 332 60 693 30
361 56 660 56 665 5 29 12 -91 39 -646z"/>
<path d="M3927 4463 c10 -18 21 -33 26 -33 14 0 7 17 -19 41 l-26 24 19 -32z"/>
<path d="M3345 3570 c3 -5 8 -10 11 -10 2 0 4 5 4 10 0 6 -5 10 -11 10 -5 0
-7 -4 -4 -10z"/>
</g>
</svg>
